<svg width="234" height="240" viewBox="0 0 234 240" fill="none" xmlns="http://www.w3.org/2000/svg">
<g clip-path="url(#clip0_2_40)">
<rect width="234" height="240" fill="white"/>
<path fill-rule="evenodd" clip-rule="evenodd" d="M155.029 75.2602L133.866 96.9658L122.419 85.225L143.633 63.4666L126.505 45.9656L59.4917 114.428L126.5 182.9L143.764 165.26L122.531 143.483L133.979 131.742L155.23 153.539L172.163 136.259L150.887 114.428L172.153 92.617L155.104 75.193L155.029 75.2602Z" fill="#F0A31E"/>
<path fill-rule="evenodd" clip-rule="evenodd" d="M154.819 67.6987L133.656 89.4187L122.209 77.6779L143.423 55.9195L126.295 38.4188L59.2816 106.876L126.295 175.339L143.559 157.699L122.326 135.921L133.773 124.18L155.025 145.977L171.957 128.697L150.673 106.867L171.939 85.0555L154.889 67.6315L154.819 67.6987ZM116.757 106.737L105.309 118.478L93.8621 106.737L105.309 94.9963L116.757 106.737Z" fill="#004396"/>
<path fill-rule="evenodd" clip-rule="evenodd" d="M115.601 202.675C133.52 202.675 148.136 201.048 148.136 199.046C148.136 197.045 133.52 195.422 115.601 195.422C97.6809 195.422 83.0653 197.05 83.0653 199.046C83.0653 201.043 97.6997 202.675 115.601 202.675Z" fill="#E0E0DF"/>
</g>
<defs>
<clipPath id="clip0_2_40">
<rect width="234" height="240" fill="white"/>
</clipPath>
</defs>
</svg>
